<svg width="547" height="23" viewBox="0 0 547 23" fill="none" xmlns="http://www.w3.org/2000/svg">
<path d="M0 11L6.5 0L13 11H0ZM2.03864 9.84211H10.9614L6.5 2.31579L2.03864 9.84211ZM6.5 9.26316C6.66742 9.26316 6.80777 9.20768 6.92102 9.09671C7.03428 8.98575 7.09091 8.84825 7.09091 8.68421C7.09091 8.52018 7.03428 8.38268 6.92102 8.27171C6.80777 8.16075 6.66742 8.10526 6.5 8.10526C6.33258 8.10526 6.19223 8.16075 6.07898 8.27171C5.96572 8.38268 5.90909 8.52018 5.90909 8.68421C5.90909 8.84825 5.96572 8.98575 6.07898 9.09671C6.19223 9.20768 6.33258 9.26316 6.5 9.26316ZM5.90909 7.52632H7.09091V4.63158H5.90909V7.52632Z" fill="#A17E24"/>
<rect x="1" y="21" width="546" height="2" fill="#D9D9D9"/>
</svg>
