<svg width="555" height="60" viewBox="0 0 555 60" fill="none" xmlns="http://www.w3.org/2000/svg">
<path d="M1 19H555V46C555 53.732 548.732 60 541 60H15C7.26801 60 1 53.732 1 46V19Z" fill="#DFDFDF"/>
<path d="M1 19H555V43.4375C555 51.1695 548.732 57.4375 541 57.4375H15C7.26801 57.4375 1 51.1695 1 43.4375V19Z" fill="white"/>
<path d="M4 13C4 7.47715 8.47715 3 14 3H542C547.523 3 552 7.47715 552 13V19H4V13Z" fill="#D9D9D9"/>
<circle cx="11" cy="11" r="11" fill="#953737"/>
<path d="M4 16L10.5 5L17 16H4ZM6.03864 14.8421H14.9614L10.5 7.31579L6.03864 14.8421ZM10.5 14.2632C10.6674 14.2632 10.8078 14.2077 10.921 14.0967C11.0343 13.9857 11.0909 13.8482 11.0909 13.6842C11.0909 13.5202 11.0343 13.3827 10.921 13.2717C10.8078 13.1607 10.6674 13.1053 10.5 13.1053C10.3326 13.1053 10.1922 13.1607 10.079 13.2717C9.96572 13.3827 9.90909 13.5202 9.90909 13.6842C9.90909 13.8482 9.96572 13.9857 10.079 14.0967C10.1922 14.2077 10.3326 14.2632 10.5 14.2632ZM9.90909 12.5263H11.0909V9.63158H9.90909V12.5263Z" fill="white"/>
</svg>
