<svg width="555" height="137" viewBox="0 0 555 137" fill="none" xmlns="http://www.w3.org/2000/svg">
<path d="M1 19H555V123C555 130.732 548.732 137 541 137H15C7.26801 137 1 130.732 1 123V19Z" fill="#DFDFDF"/>
<path d="M1 19H555V120.385C555 128.117 548.732 134.385 541 134.385H15C7.26801 134.385 1 128.117 1 120.385V19Z" fill="white"/>
<path d="M4 13C4 7.47715 8.47715 3 14 3H542C547.523 3 552 7.47715 552 13V19H4V13Z" fill="#D9D9D9"/>
<circle cx="11" cy="11" r="11" fill="#9BAC41"/>
<path d="M6.2 17C5.87 17 5.5875 16.8803 5.3525 16.641C5.1175 16.4016 5 16.1139 5 15.7778V7.22222C5 6.88611 5.1175 6.59838 5.3525 6.35903C5.5875 6.11968 5.87 6 6.2 6H15.8C16.13 6 16.4125 6.11968 16.6475 6.35903C16.8825 6.59838 17 6.88611 17 7.22222V15.7778C17 16.1139 16.8825 16.4016 16.6475 16.641C16.4125 16.8803 16.13 17 15.8 17H6.2ZM6.2 15.7778H15.8V7.22222H6.2V15.7778ZM6.8 14.5556H9.8V13.3333H6.8V14.5556ZM12.53 13.3333L15.5 10.3083L14.645 9.4375L12.53 11.6069L11.675 10.7361L10.835 11.6069L12.53 13.3333ZM6.8 12.1111H9.8V10.8889H6.8V12.1111ZM6.8 9.66667H9.8V8.44444H6.8V9.66667Z" fill="white"/>
</svg>
